<svg xmlns="http://www.w3.org/2000/svg" xmlns:xlink="http://www.w3.org/1999/xlink" width="1846.4" height="828">
    <g transform="translate(-12 -12)">
        <path d="M32 32h1806.4v788H32z" stroke="#000" stroke-width="2" fill="#fff"/>
        <path d="M80 200h200v552H80z" fill="#fff"/>
        <path d="M80 200h200v552H80zM80 240h200" stroke="#000" stroke-width="2" fill="none"/>
        <use xlink:href="#a" transform="matrix(1,0,0,1,90,200) translate(68.025 23.6)"/>
        <use xlink:href="#b" transform="matrix(1,0,0,1,85,242.5) translate(0 17.1)"/>
        <use xlink:href="#c" transform="matrix(1,0,0,1,85,274.5) translate(0 17.1)"/>
        <use xlink:href="#d" transform="matrix(1,0,0,1,85,306.5) translate(0 17.1)"/>
        <use xlink:href="#e" transform="matrix(1,0,0,1,85,338.5) translate(0 17.1)"/>
        <use xlink:href="#f" transform="matrix(1,0,0,1,85,370.5) translate(0 17.1)"/>
        <use xlink:href="#g" transform="matrix(1,0,0,1,85,402.5) translate(0 17.1)"/>
        <use xlink:href="#h" transform="matrix(1,0,0,1,85,434.5) translate(0 17.1)"/>
        <use xlink:href="#i" transform="matrix(1,0,0,1,85,466.5) translate(0 17.1)"/>
        <use xlink:href="#j" transform="matrix(1,0,0,1,85,498.5) translate(0 17.1)"/>
        <use xlink:href="#k" transform="matrix(1,0,0,1,85,530.5) translate(0 17.1)"/>
        <use xlink:href="#l" transform="matrix(1,0,0,1,85,562.5) translate(0 17.1)"/>
        <use xlink:href="#m" transform="matrix(1,0,0,1,85,594.5) translate(0 17.1)"/>
        <use xlink:href="#n" transform="matrix(1,0,0,1,85,626.5) translate(0 17.1)"/>
        <use xlink:href="#o" transform="matrix(1,0,0,1,85,658.5) translate(0 17.1)"/>
        <use xlink:href="#p" transform="matrix(1,0,0,1,85,690.5) translate(0 17.1)"/>
        <use xlink:href="#q" transform="matrix(1,0,0,1,85,722.5) translate(0 17.1)"/>
        <path d="M360 200h200v488H360z" fill="#fff"/>
        <path d="M360 200h200v488H360zM360 240h200" stroke="#000" stroke-width="2" fill="none"/>
        <use xlink:href="#r" transform="matrix(1,0,0,1,370,200) translate(34.025 23.6)"/>
        <use xlink:href="#s" transform="matrix(1,0,0,1,365,242.5) translate(0 17.1)"/>
        <use xlink:href="#t" transform="matrix(1,0,0,1,365,274.5) translate(0 17.1)"/>
        <use xlink:href="#u" transform="matrix(1,0,0,1,365,306.5) translate(0 17.1)"/>
        <use xlink:href="#v" transform="matrix(1,0,0,1,365,338.5) translate(0 17.1)"/>
        <use xlink:href="#w" transform="matrix(1,0,0,1,365,370.5) translate(0 17.1)"/>
        <use xlink:href="#x" transform="matrix(1,0,0,1,365,402.5) translate(0 17.1)"/>
        <use xlink:href="#y" transform="matrix(1,0,0,1,365,434.5) translate(0 17.1)"/>
        <use xlink:href="#z" transform="matrix(1,0,0,1,365,466.5) translate(0 17.1)"/>
        <use xlink:href="#A" transform="matrix(1,0,0,1,365,498.5) translate(0 17.1)"/>
        <use xlink:href="#B" transform="matrix(1,0,0,1,365,530.5) translate(0 17.1)"/>
        <use xlink:href="#C" transform="matrix(1,0,0,1,365,562.5) translate(0 17.1)"/>
        <use xlink:href="#D" transform="matrix(1,0,0,1,365,594.5) translate(0 17.1)"/>
        <use xlink:href="#E" transform="matrix(1,0,0,1,365,626.5) translate(0 17.1)"/>
        <use xlink:href="#F" transform="matrix(1,0,0,1,365,658.5) translate(0 17.1)"/>
        <path d="M640 200h200v328H640z" fill="#fff"/>
        <path d="M640 200h200v328H640zM640 240h200" stroke="#000" stroke-width="2" fill="none"/>
        <use xlink:href="#G" transform="matrix(1,0,0,1,650,200) translate(41.05 23.6)"/>
        <use xlink:href="#s" transform="matrix(1,0,0,1,645,242.5) translate(0 17.1)"/>
        <use xlink:href="#t" transform="matrix(1,0,0,1,645,274.5) translate(0 17.1)"/>
        <use xlink:href="#H" transform="matrix(1,0,0,1,645,306.5) translate(0 17.1)"/>
        <use xlink:href="#I" transform="matrix(1,0,0,1,645,338.5) translate(0 17.1)"/>
        <use xlink:href="#J" transform="matrix(1,0,0,1,645,370.5) translate(0 17.1)"/>
        <use xlink:href="#K" transform="matrix(1,0,0,1,645,402.5) translate(0 17.1)"/>
        <use xlink:href="#L" transform="matrix(1,0,0,1,645,434.5) translate(0 17.1)"/>
        <use xlink:href="#E" transform="matrix(1,0,0,1,645,466.5) translate(0 17.1)"/>
        <use xlink:href="#F" transform="matrix(1,0,0,1,645,498.5) translate(0 17.1)"/>
        <path d="M80 60h580v106H80z" stroke="#000" stroke-opacity="0" stroke-width="2" fill="#fff" fill-opacity="0"/>
        <use xlink:href="#M" transform="matrix(1,0,0,1,85,65) translate(0 56)"/>
        <use xlink:href="#N" transform="matrix(1,0,0,1,85,65) translate(93.33333333333334 56)"/>
        <path d="M920 200h200v200H920z" fill="#fff"/>
        <path d="M920 200h200v200H920zM920 240h200" stroke="#000" stroke-width="2" fill="none"/>
        <use xlink:href="#O" transform="matrix(1,0,0,1,930,200) translate(43.599999999999994 23.6)"/>
        <use xlink:href="#s" transform="matrix(1,0,0,1,925,242.5) translate(0 17.1)"/>
        <use xlink:href="#t" transform="matrix(1,0,0,1,925,274.5) translate(0 17.1)"/>
        <use xlink:href="#P" transform="matrix(1,0,0,1,925,306.5) translate(0 17.1)"/>
        <use xlink:href="#E" transform="matrix(1,0,0,1,925,338.5) translate(0 17.1)"/>
        <use xlink:href="#F" transform="matrix(1,0,0,1,925,370.5) translate(0 17.1)"/>
        <path d="M1200 200h200v200h-200z" fill="#fff"/>
        <path d="M1200 200h200v200h-200zM1200 240h200" stroke="#000" stroke-width="2" fill="none"/>
        <use xlink:href="#Q" transform="matrix(1,0,0,1,1210,200) translate(30.549999999999997 23.6)"/>
        <use xlink:href="#s" transform="matrix(1,0,0,1,1205,242.5) translate(0 17.1)"/>
        <use xlink:href="#t" transform="matrix(1,0,0,1,1205,274.5) translate(0 17.1)"/>
        <use xlink:href="#R" transform="matrix(1,0,0,1,1205,306.5) translate(0 17.1)"/>
        <use xlink:href="#E" transform="matrix(1,0,0,1,1205,338.5) translate(0 17.1)"/>
        <use xlink:href="#F" transform="matrix(1,0,0,1,1205,370.5) translate(0 17.1)"/>
        <path d="M1480 200h200v200h-200z" fill="#fff"/>
        <path d="M1480 200h200v200h-200zM1480 240h200" stroke="#000" stroke-width="2" fill="none"/>
        <use xlink:href="#S" transform="matrix(1,0,0,1,1490,200) translate(20.57499999999999 23.6)"/>
        <use xlink:href="#s" transform="matrix(1,0,0,1,1485,242.5) translate(0 17.1)"/>
        <use xlink:href="#t" transform="matrix(1,0,0,1,1485,274.5) translate(0 17.1)"/>
        <use xlink:href="#T" transform="matrix(1,0,0,1,1485,306.5) translate(0 17.1)"/>
        <use xlink:href="#E" transform="matrix(1,0,0,1,1485,338.5) translate(0 17.1)"/>
        <use xlink:href="#F" transform="matrix(1,0,0,1,1485,370.5) translate(0 17.1)"/>
        <path d="M920 480h200v200H920z" fill="#fff"/>
        <path d="M920 480h200v200H920zM920 520h200" stroke="#000" stroke-width="2" fill="none"/>
        <use xlink:href="#O" transform="matrix(1,0,0,1,930,480) translate(43.599999999999994 23.6)"/>
        <use xlink:href="#s" transform="matrix(1,0,0,1,925,522.5) translate(0 17.1)"/>
        <use xlink:href="#t" transform="matrix(1,0,0,1,925,554.5) translate(0 17.1)"/>
        <use xlink:href="#P" transform="matrix(1,0,0,1,925,586.5) translate(0 17.1)"/>
        <use xlink:href="#E" transform="matrix(1,0,0,1,925,618.5) translate(0 17.1)"/>
        <use xlink:href="#F" transform="matrix(1,0,0,1,925,650.5) translate(0 17.1)"/>
        <path d="M1200 480h200v200h-200z" fill="#fff"/>
        <path d="M1200 480h200v200h-200zM1200 520h200" stroke="#000" stroke-width="2" fill="none"/>
        <use xlink:href="#U" transform="matrix(1,0,0,1,1210,480) translate(43.574999999999996 23.6)"/>
        <use xlink:href="#s" transform="matrix(1,0,0,1,1205,522.5) translate(0 17.1)"/>
        <use xlink:href="#t" transform="matrix(1,0,0,1,1205,554.5) translate(0 17.1)"/>
        <use xlink:href="#V" transform="matrix(1,0,0,1,1205,586.5) translate(0 17.1)"/>
        <use xlink:href="#E" transform="matrix(1,0,0,1,1205,618.5) translate(0 17.1)"/>
        <use xlink:href="#F" transform="matrix(1,0,0,1,1205,650.5) translate(0 17.1)"/>
        <path d="M1480 480h200v220h-200z" fill="#fff"/>
        <path d="M1480 480h200v220h-200zM1480 520h200" stroke="#000" stroke-width="2" fill="none"/>
        <use xlink:href="#W" transform="matrix(1,0,0,1,1490,480) translate(70.55 23.6)"/>
        <use xlink:href="#s" transform="matrix(1,0,0,1,1485,522.5) translate(0 17.1)"/>
        <use xlink:href="#X" transform="matrix(1,0,0,1,1485,554.5) translate(0 17.1)"/>
        <use xlink:href="#Y" transform="matrix(1,0,0,1,1485,586.5) translate(0 17.1)"/>
        <use xlink:href="#Z" transform="matrix(1,0,0,1,1485,618.5) translate(0 17.1)"/>
        <use xlink:href="#E" transform="matrix(1,0,0,1,1485,650.5) translate(0 17.1)"/>
        <use xlink:href="#F" transform="matrix(1,0,0,1,1485,682.5) translate(0 14.4)"/>
        <defs>
            <path d="M84 4C-5 8 30-112 23-190h32v120c0 31 7 50 39 49 72-2 45-101 50-169h31l1 190h-30c-1-10 1-25-2-33-11 22-28 36-60 37" id="aa"/>
            <path d="M135-143c-3-34-86-38-87 0 15 53 115 12 119 90S17 21 10-45l28-5c4 36 97 45 98 0-10-56-113-15-118-90-4-57 82-63 122-42 12 7 21 19 24 35"
                  id="ab"/>
            <path
                d="M100-194c63 0 86 42 84 106H49c0 40 14 67 53 68 26 1 43-12 49-29l28 8c-11 28-37 45-77 45C44 4 14-33 15-96c1-61 26-98 85-98zm52 81c6-60-76-77-97-28-3 7-6 17-6 28h103"
                id="ac"/>
            <path d="M114-163C36-179 61-72 57 0H25l-1-190h30c1 12-1 29 2 39 6-27 23-49 58-41v29" id="ad"/>
            <g id="a">
                <use transform="matrix(0.05,0,0,0.05,0,0)" xlink:href="#aa"/>
                <use transform="matrix(0.05,0,0,0.05,10,0)" xlink:href="#ab"/>
                <use transform="matrix(0.05,0,0,0.05,19,0)" xlink:href="#ac"/>
                <use transform="matrix(0.05,0,0,0.05,29,0)" xlink:href="#ad"/>
                <use transform="matrix(0.05,0,0,0.05,34.95,0)" xlink:href="#ab"/>
            </g>
            <path d="M24-231v-30h32v30H24zM24 0v-190h32V0H24" id="ae"/>
            <path
                d="M85-194c31 0 48 13 60 33l-1-100h32l1 261h-30c-2-10 0-23-3-31C134-8 116 4 85 4 32 4 16-35 15-94c0-66 23-100 70-100zm9 24c-40 0-46 34-46 75 0 40 6 74 45 74 42 0 51-32 51-76 0-42-9-74-50-73"
                id="af"/>
            <g id="b">
                <use transform="matrix(0.05,0,0,0.05,0,0)" xlink:href="#ae"/>
                <use transform="matrix(0.05,0,0,0.05,3.95,0)" xlink:href="#af"/>
            </g>
            <g id="c">
                <use transform="matrix(0.05,0,0,0.05,0,0)" xlink:href="#aa"/>
                <use transform="matrix(0.05,0,0,0.05,10,0)" xlink:href="#aa"/>
                <use transform="matrix(0.05,0,0,0.05,20,0)" xlink:href="#ae"/>
                <use transform="matrix(0.05,0,0,0.05,23.95,0)" xlink:href="#af"/>
            </g>
            <path d="M117-194c89-4 53 116 60 194h-32v-121c0-31-8-49-39-48C34-167 62-67 57 0H25l-1-190h30c1 10-1 24 2 32 11-22 29-35 61-36" id="ag"/>
            <path
                d="M141-36C126-15 110 5 73 4 37 3 15-17 15-53c-1-64 63-63 125-63 3-35-9-54-41-54-24 1-41 7-42 31l-33-3c5-37 33-52 76-52 45 0 72 20 72 64v82c-1 20 7 32 28 27v20c-31 9-61-2-59-35zM48-53c0 20 12 33 32 33 41-3 63-29 60-74-43 2-92-5-92 41"
                id="ah"/>
            <path
                d="M210-169c-67 3-38 105-44 169h-31v-121c0-29-5-50-35-48C34-165 62-65 56 0H25l-1-190h30c1 10-1 24 2 32 10-44 99-50 107 0 11-21 27-35 58-36 85-2 47 119 55 194h-31v-121c0-29-5-49-35-48"
                id="ai"/>
            <g id="d">
                <use transform="matrix(0.05,0,0,0.05,0,0)" xlink:href="#aa"/>
                <use transform="matrix(0.05,0,0,0.05,10,0)" xlink:href="#ab"/>
                <use transform="matrix(0.05,0,0,0.05,19,0)" xlink:href="#ac"/>
                <use transform="matrix(0.05,0,0,0.05,29,0)" xlink:href="#ad"/>
                <use transform="matrix(0.05,0,0,0.05,34.95,0)" xlink:href="#ag"/>
                <use transform="matrix(0.05,0,0,0.05,44.95,0)" xlink:href="#ah"/>
                <use transform="matrix(0.05,0,0,0.05,54.95,0)" xlink:href="#ai"/>
                <use transform="matrix(0.05,0,0,0.05,69.9,0)" xlink:href="#ac"/>
            </g>
            <path
                d="M96-169c-40 0-48 33-48 73s9 75 48 75c24 0 41-14 43-38l32 2c-6 37-31 61-74 61-59 0-76-41-82-99-10-93 101-131 147-64 4 7 5 14 7 22l-32 3c-4-21-16-35-41-35"
                id="aj"/>
            <path d="M59-47c-2 24 18 29 38 22v24C64 9 27 4 27-40v-127H5v-23h24l9-43h21v43h35v23H59v120" id="ak"/>
            <path d="M108 0H70L1-190h34L89-25l56-165h34" id="al"/>
            <g id="e">
                <use transform="matrix(0.05,0,0,0.05,0,0)" xlink:href="#ah"/>
                <use transform="matrix(0.05,0,0,0.05,10,0)" xlink:href="#aj"/>
                <use transform="matrix(0.05,0,0,0.05,19,0)" xlink:href="#ak"/>
                <use transform="matrix(0.05,0,0,0.05,24,0)" xlink:href="#ae"/>
                <use transform="matrix(0.05,0,0,0.05,27.950000000000003,0)" xlink:href="#al"/>
                <use transform="matrix(0.05,0,0,0.05,36.95,0)" xlink:href="#ac"/>
            </g>
            <path d="M100-194c62-1 85 37 85 99 1 63-27 99-86 99S16-35 15-95c0-66 28-99 85-99zM99-20c44 1 53-31 53-75 0-43-8-75-51-75s-53 32-53 75 10 74 51 75"
                  id="am"/>
            <path d="M101-234c-31-9-42 10-38 44h38v23H63V0H32v-167H5v-23h27c-7-52 17-82 69-68v24" id="an"/>
            <g id="f">
                <use transform="matrix(0.05,0,0,0.05,0,0)" xlink:href="#aj"/>
                <use transform="matrix(0.05,0,0,0.05,9,0)" xlink:href="#am"/>
                <use transform="matrix(0.05,0,0,0.05,19,0)" xlink:href="#ag"/>
                <use transform="matrix(0.05,0,0,0.05,29,0)" xlink:href="#an"/>
                <use transform="matrix(0.05,0,0,0.05,34,0)" xlink:href="#ae"/>
                <use transform="matrix(0.05,0,0,0.05,37.95,0)" xlink:href="#ad"/>
                <use transform="matrix(0.05,0,0,0.05,43.900000000000006,0)" xlink:href="#ai"/>
                <use transform="matrix(0.05,0,0,0.05,58.85,0)" xlink:href="#ac"/>
                <use transform="matrix(0.05,0,0,0.05,68.85000000000001,0)" xlink:href="#af"/>
            </g>
            <path d="M9 0v-24l116-142H16v-24h144v24L44-24h123V0H9" id="ao"/>
            <g id="g">
                <use transform="matrix(0.05,0,0,0.05,0,0)" xlink:href="#ak"/>
                <use transform="matrix(0.05,0,0,0.05,5,0)" xlink:href="#ae"/>
                <use transform="matrix(0.05,0,0,0.05,8.95,0)" xlink:href="#ai"/>
                <use transform="matrix(0.05,0,0,0.05,23.9,0)" xlink:href="#ac"/>
                <use transform="matrix(0.05,0,0,0.05,33.9,0)" xlink:href="#ao"/>
                <use transform="matrix(0.05,0,0,0.05,42.9,0)" xlink:href="#am"/>
                <use transform="matrix(0.05,0,0,0.05,52.900000000000006,0)" xlink:href="#ag"/>
                <use transform="matrix(0.05,0,0,0.05,62.900000000000006,0)" xlink:href="#ac"/>
            </g>
            <path d="M-5 72V49h209v23H-5" id="ap"/>
            <path d="M24 0v-261h32V0H24" id="aq"/>
            <g id="h">
                <use transform="matrix(0.05,0,0,0.05,0,0)" xlink:href="#ah"/>
                <use transform="matrix(0.05,0,0,0.05,10,0)" xlink:href="#al"/>
                <use transform="matrix(0.05,0,0,0.05,19,0)" xlink:href="#ah"/>
                <use transform="matrix(0.05,0,0,0.05,29,0)" xlink:href="#ak"/>
                <use transform="matrix(0.05,0,0,0.05,34,0)" xlink:href="#ah"/>
                <use transform="matrix(0.05,0,0,0.05,44,0)" xlink:href="#ad"/>
                <use transform="matrix(0.05,0,0,0.05,49.95,0)" xlink:href="#ap"/>
                <use transform="matrix(0.05,0,0,0.05,59.95,0)" xlink:href="#aq"/>
                <use transform="matrix(0.05,0,0,0.05,63.900000000000006,0)" xlink:href="#am"/>
                <use transform="matrix(0.05,0,0,0.05,73.9,0)" xlink:href="#aj"/>
                <use transform="matrix(0.05,0,0,0.05,82.9,0)" xlink:href="#ah"/>
                <use transform="matrix(0.05,0,0,0.05,92.9,0)" xlink:href="#ak"/>
                <use transform="matrix(0.05,0,0,0.05,97.9,0)" xlink:href="#ae"/>
                <use transform="matrix(0.05,0,0,0.05,101.85000000000001,0)" xlink:href="#am"/>
                <use transform="matrix(0.05,0,0,0.05,111.85000000000001,0)" xlink:href="#ag"/>
            </g>
            <path d="M179-190L93 31C79 59 56 82 12 73V49c39 6 53-20 64-50L1-190h34L92-34l54-156h33" id="ar"/>
            <path
                d="M115-194c55 1 70 41 70 98S169 2 115 4C84 4 66-9 55-30l1 105H24l-1-265h31l2 30c10-21 28-34 59-34zm-8 174c40 0 45-34 45-75s-6-73-45-74c-42 0-51 32-51 76 0 43 10 73 51 73"
                id="as"/>
            <g id="i">
                <use transform="matrix(0.05,0,0,0.05,0,0)" xlink:href="#ah"/>
                <use transform="matrix(0.05,0,0,0.05,10,0)" xlink:href="#al"/>
                <use transform="matrix(0.05,0,0,0.05,19,0)" xlink:href="#ah"/>
                <use transform="matrix(0.05,0,0,0.05,29,0)" xlink:href="#ak"/>
                <use transform="matrix(0.05,0,0,0.05,34,0)" xlink:href="#ah"/>
                <use transform="matrix(0.05,0,0,0.05,44,0)" xlink:href="#ad"/>
                <use transform="matrix(0.05,0,0,0.05,49.95,0)" xlink:href="#ap"/>
                <use transform="matrix(0.05,0,0,0.05,59.95,0)" xlink:href="#ak"/>
                <use transform="matrix(0.05,0,0,0.05,64.95,0)" xlink:href="#ar"/>
                <use transform="matrix(0.05,0,0,0.05,73.95,0)" xlink:href="#as"/>
                <use transform="matrix(0.05,0,0,0.05,83.95,0)" xlink:href="#ac"/>
            </g>
            <path d="M206 0h-36l-40-164L89 0H53L-1-190h32L70-26l43-164h34l41 164 42-164h31" id="at"/>
            <g id="j">
                <use transform="matrix(0.05,0,0,0.05,0,0)" xlink:href="#as"/>
                <use transform="matrix(0.05,0,0,0.05,10,0)" xlink:href="#ah"/>
                <use transform="matrix(0.05,0,0,0.05,20,0)" xlink:href="#ab"/>
                <use transform="matrix(0.05,0,0,0.05,29,0)" xlink:href="#ab"/>
                <use transform="matrix(0.05,0,0,0.05,38,0)" xlink:href="#at"/>
                <use transform="matrix(0.05,0,0,0.05,50.95,0)" xlink:href="#am"/>
                <use transform="matrix(0.05,0,0,0.05,60.95,0)" xlink:href="#ad"/>
                <use transform="matrix(0.05,0,0,0.05,66.9,0)" xlink:href="#af"/>
            </g>
            <g id="k">
                <use transform="matrix(0.05,0,0,0.05,0,0)" xlink:href="#aj"/>
                <use transform="matrix(0.05,0,0,0.05,9,0)" xlink:href="#am"/>
                <use transform="matrix(0.05,0,0,0.05,19,0)" xlink:href="#ag"/>
                <use transform="matrix(0.05,0,0,0.05,29,0)" xlink:href="#an"/>
                <use transform="matrix(0.05,0,0,0.05,34,0)" xlink:href="#ae"/>
                <use transform="matrix(0.05,0,0,0.05,37.95,0)" xlink:href="#ad"/>
                <use transform="matrix(0.05,0,0,0.05,43.900000000000006,0)" xlink:href="#ai"/>
                <use transform="matrix(0.05,0,0,0.05,58.85,0)" xlink:href="#ah"/>
                <use transform="matrix(0.05,0,0,0.05,68.85000000000001,0)" xlink:href="#ak"/>
                <use transform="matrix(0.05,0,0,0.05,73.85000000000001,0)" xlink:href="#ae"/>
                <use transform="matrix(0.05,0,0,0.05,77.80000000000001,0)" xlink:href="#am"/>
                <use transform="matrix(0.05,0,0,0.05,87.80000000000001,0)" xlink:href="#ag"/>
                <use transform="matrix(0.05,0,0,0.05,97.80000000000001,0)" xlink:href="#ap"/>
                <use transform="matrix(0.05,0,0,0.05,107.80000000000001,0)" xlink:href="#aj"/>
                <use transform="matrix(0.05,0,0,0.05,116.80000000000001,0)" xlink:href="#am"/>
                <use transform="matrix(0.05,0,0,0.05,126.80000000000001,0)" xlink:href="#af"/>
                <use transform="matrix(0.05,0,0,0.05,136.8,0)" xlink:href="#ac"/>
            </g>
            <path
                d="M115-194c53 0 69 39 70 98 0 66-23 100-70 100C84 3 66-7 56-30L54 0H23l1-261h32v101c10-23 28-34 59-34zm-8 174c40 0 45-34 45-75 0-40-5-75-45-74-42 0-51 32-51 76 0 43 10 73 51 73"
                id="au"/>
            <path d="M143 0L79-87 56-68V0H24v-261h32v163l83-92h37l-77 82L181 0h-38" id="av"/>
            <g id="l">
                <use transform="matrix(0.05,0,0,0.05,0,0)" xlink:href="#ad"/>
                <use transform="matrix(0.05,0,0,0.05,5.95,0)" xlink:href="#ac"/>
                <use transform="matrix(0.05,0,0,0.05,15.949999999999998,0)" xlink:href="#ai"/>
                <use transform="matrix(0.05,0,0,0.05,30.899999999999995,0)" xlink:href="#ac"/>
                <use transform="matrix(0.05,0,0,0.05,40.9,0)" xlink:href="#ai"/>
                <use transform="matrix(0.05,0,0,0.05,55.85,0)" xlink:href="#au"/>
                <use transform="matrix(0.05,0,0,0.05,65.85,0)" xlink:href="#ac"/>
                <use transform="matrix(0.05,0,0,0.05,75.85,0)" xlink:href="#ad"/>
                <use transform="matrix(0.05,0,0,0.05,81.8,0)" xlink:href="#ap"/>
                <use transform="matrix(0.05,0,0,0.05,91.8,0)" xlink:href="#ak"/>
                <use transform="matrix(0.05,0,0,0.05,96.8,0)" xlink:href="#am"/>
                <use transform="matrix(0.05,0,0,0.05,106.80000000000001,0)" xlink:href="#av"/>
                <use transform="matrix(0.05,0,0,0.05,115.80000000000001,0)" xlink:href="#ac"/>
                <use transform="matrix(0.05,0,0,0.05,125.80000000000001,0)" xlink:href="#ag"/>
            </g>
            <g id="m">
                <use transform="matrix(0.05,0,0,0.05,0,0)" xlink:href="#ak"/>
                <use transform="matrix(0.05,0,0,0.05,5,0)" xlink:href="#ac"/>
                <use transform="matrix(0.05,0,0,0.05,15,0)" xlink:href="#ai"/>
                <use transform="matrix(0.05,0,0,0.05,29.950000000000003,0)" xlink:href="#as"/>
                <use transform="matrix(0.05,0,0,0.05,39.95,0)" xlink:href="#aq"/>
                <use transform="matrix(0.05,0,0,0.05,43.900000000000006,0)" xlink:href="#ah"/>
                <use transform="matrix(0.05,0,0,0.05,53.900000000000006,0)" xlink:href="#ak"/>
                <use transform="matrix(0.05,0,0,0.05,58.900000000000006,0)" xlink:href="#ac"/>
            </g>
            <g id="n">
                <use transform="matrix(0.05,0,0,0.05,0,0)" xlink:href="#aj"/>
                <use transform="matrix(0.05,0,0,0.05,9,0)" xlink:href="#ad"/>
                <use transform="matrix(0.05,0,0,0.05,14.949999999999998,0)" xlink:href="#ac"/>
                <use transform="matrix(0.05,0,0,0.05,24.95,0)" xlink:href="#ah"/>
                <use transform="matrix(0.05,0,0,0.05,34.95,0)" xlink:href="#ak"/>
                <use transform="matrix(0.05,0,0,0.05,39.95,0)" xlink:href="#ac"/>
                <use transform="matrix(0.05,0,0,0.05,49.95,0)" xlink:href="#af"/>
                <use transform="matrix(0.05,0,0,0.05,59.95,0)" xlink:href="#ap"/>
                <use transform="matrix(0.05,0,0,0.05,69.95,0)" xlink:href="#ah"/>
                <use transform="matrix(0.05,0,0,0.05,79.95,0)" xlink:href="#ak"/>
            </g>
            <g id="o">
                <use transform="matrix(0.05,0,0,0.05,0,0)" xlink:href="#aa"/>
                <use transform="matrix(0.05,0,0,0.05,10,0)" xlink:href="#as"/>
                <use transform="matrix(0.05,0,0,0.05,20,0)" xlink:href="#af"/>
                <use transform="matrix(0.05,0,0,0.05,30,0)" xlink:href="#ah"/>
                <use transform="matrix(0.05,0,0,0.05,40,0)" xlink:href="#ak"/>
                <use transform="matrix(0.05,0,0,0.05,45,0)" xlink:href="#ac"/>
                <use transform="matrix(0.05,0,0,0.05,55,0)" xlink:href="#af"/>
                <use transform="matrix(0.05,0,0,0.05,65,0)" xlink:href="#ap"/>
                <use transform="matrix(0.05,0,0,0.05,75,0)" xlink:href="#ah"/>
                <use transform="matrix(0.05,0,0,0.05,85,0)" xlink:href="#ak"/>
            </g>
            <g id="p">
                <use transform="matrix(0.05,0,0,0.05,0,0)" xlink:href="#aj"/>
                <use transform="matrix(0.05,0,0,0.05,9,0)" xlink:href="#am"/>
                <use transform="matrix(0.05,0,0,0.05,19,0)" xlink:href="#ag"/>
                <use transform="matrix(0.05,0,0,0.05,29,0)" xlink:href="#an"/>
                <use transform="matrix(0.05,0,0,0.05,34,0)" xlink:href="#ae"/>
                <use transform="matrix(0.05,0,0,0.05,37.95,0)" xlink:href="#ad"/>
                <use transform="matrix(0.05,0,0,0.05,43.900000000000006,0)" xlink:href="#ai"/>
                <use transform="matrix(0.05,0,0,0.05,58.85,0)" xlink:href="#ac"/>
                <use transform="matrix(0.05,0,0,0.05,68.85000000000001,0)" xlink:href="#af"/>
                <use transform="matrix(0.05,0,0,0.05,78.85000000000001,0)" xlink:href="#ap"/>
                <use transform="matrix(0.05,0,0,0.05,88.85000000000001,0)" xlink:href="#ah"/>
                <use transform="matrix(0.05,0,0,0.05,98.85000000000001,0)" xlink:href="#ak"/>
            </g>
            <g id="q">
                <use transform="matrix(0.05,0,0,0.05,0,0)" xlink:href="#af"/>
                <use transform="matrix(0.05,0,0,0.05,10,0)" xlink:href="#ac"/>
                <use transform="matrix(0.05,0,0,0.05,20,0)" xlink:href="#aq"/>
                <use transform="matrix(0.05,0,0,0.05,23.95,0)" xlink:href="#ac"/>
                <use transform="matrix(0.05,0,0,0.05,33.95,0)" xlink:href="#ak"/>
                <use transform="matrix(0.05,0,0,0.05,38.95,0)" xlink:href="#ac"/>
                <use transform="matrix(0.05,0,0,0.05,48.95,0)" xlink:href="#af"/>
                <use transform="matrix(0.05,0,0,0.05,58.95,0)" xlink:href="#ap"/>
                <use transform="matrix(0.05,0,0,0.05,68.95,0)" xlink:href="#ah"/>
                <use transform="matrix(0.05,0,0,0.05,78.95,0)" xlink:href="#ak"/>
            </g>
            <g id="r">
                <use transform="matrix(0.05,0,0,0.05,0,0)" xlink:href="#aa"/>
                <use transform="matrix(0.05,0,0,0.05,10,0)" xlink:href="#ab"/>
                <use transform="matrix(0.05,0,0,0.05,19,0)" xlink:href="#ac"/>
                <use transform="matrix(0.05,0,0,0.05,29,0)" xlink:href="#ad"/>
                <use transform="matrix(0.05,0,0,0.05,34.95,0)" xlink:href="#ap"/>
                <use transform="matrix(0.05,0,0,0.05,44.95,0)" xlink:href="#aj"/>
                <use transform="matrix(0.05,0,0,0.05,53.95,0)" xlink:href="#am"/>
                <use transform="matrix(0.05,0,0,0.05,63.95,0)" xlink:href="#ag"/>
                <use transform="matrix(0.05,0,0,0.05,73.95,0)" xlink:href="#ak"/>
                <use transform="matrix(0.05,0,0,0.05,78.95,0)" xlink:href="#ah"/>
                <use transform="matrix(0.05,0,0,0.05,88.95,0)" xlink:href="#aj"/>
                <use transform="matrix(0.05,0,0,0.05,97.95,0)" xlink:href="#ak"/>
                <use transform="matrix(0.05,0,0,0.05,102.95,0)" xlink:href="#ab"/>
            </g>
            <g id="s">
                <use transform="matrix(0.05,0,0,0.05,0,0)" xlink:href="#ae"/>
                <use transform="matrix(0.05,0,0,0.05,3.95,0)" xlink:href="#af"/>
            </g>
            <g id="t">
                <use transform="matrix(0.05,0,0,0.05,0,0)" xlink:href="#aa"/>
                <use transform="matrix(0.05,0,0,0.05,10,0)" xlink:href="#ab"/>
                <use transform="matrix(0.05,0,0,0.05,19,0)" xlink:href="#ac"/>
                <use transform="matrix(0.05,0,0,0.05,29,0)" xlink:href="#ad"/>
                <use transform="matrix(0.05,0,0,0.05,34.95,0)" xlink:href="#ap"/>
                <use transform="matrix(0.05,0,0,0.05,44.95,0)" xlink:href="#ae"/>
                <use transform="matrix(0.05,0,0,0.05,48.900000000000006,0)" xlink:href="#af"/>
            </g>
            <g id="u">
                <use transform="matrix(0.05,0,0,0.05,0,0)" xlink:href="#an"/>
                <use transform="matrix(0.05,0,0,0.05,5,0)" xlink:href="#ae"/>
                <use transform="matrix(0.05,0,0,0.05,8.95,0)" xlink:href="#ad"/>
                <use transform="matrix(0.05,0,0,0.05,14.899999999999999,0)" xlink:href="#ab"/>
                <use transform="matrix(0.05,0,0,0.05,23.9,0)" xlink:href="#ak"/>
                <use transform="matrix(0.05,0,0,0.05,28.899999999999995,0)" xlink:href="#ap"/>
                <use transform="matrix(0.05,0,0,0.05,38.9,0)" xlink:href="#ag"/>
                <use transform="matrix(0.05,0,0,0.05,48.9,0)" xlink:href="#ah"/>
                <use transform="matrix(0.05,0,0,0.05,58.900000000000006,0)" xlink:href="#ai"/>
                <use transform="matrix(0.05,0,0,0.05,73.85,0)" xlink:href="#ac"/>
            </g>
            <g id="v">
                <use transform="matrix(0.05,0,0,0.05,0,0)" xlink:href="#aq"/>
                <use transform="matrix(0.05,0,0,0.05,3.95,0)" xlink:href="#ah"/>
                <use transform="matrix(0.05,0,0,0.05,13.949999999999998,0)" xlink:href="#ab"/>
                <use transform="matrix(0.05,0,0,0.05,22.95,0)" xlink:href="#ak"/>
                <use transform="matrix(0.05,0,0,0.05,27.950000000000003,0)" xlink:href="#ap"/>
                <use transform="matrix(0.05,0,0,0.05,37.95,0)" xlink:href="#ag"/>
                <use transform="matrix(0.05,0,0,0.05,47.95,0)" xlink:href="#ah"/>
                <use transform="matrix(0.05,0,0,0.05,57.95,0)" xlink:href="#ai"/>
                <use transform="matrix(0.05,0,0,0.05,72.9,0)" xlink:href="#ac"/>
            </g>
            <g id="w">
                <use transform="matrix(0.05,0,0,0.05,0,0)" xlink:href="#ab"/>
                <use transform="matrix(0.05,0,0,0.05,9,0)" xlink:href="#ak"/>
                <use transform="matrix(0.05,0,0,0.05,14,0)" xlink:href="#ad"/>
                <use transform="matrix(0.05,0,0,0.05,19.95,0)" xlink:href="#ac"/>
                <use transform="matrix(0.05,0,0,0.05,29.950000000000003,0)" xlink:href="#ac"/>
                <use transform="matrix(0.05,0,0,0.05,39.95,0)" xlink:href="#ak"/>
            </g>
            <path d="M141 0L90-78 38 0H4l68-98-65-92h35l48 74 47-74h35l-64 92 68 98h-35" id="aw"/>
            <g id="x">
                <use transform="matrix(0.05,0,0,0.05,0,0)" xlink:href="#ab"/>
                <use transform="matrix(0.05,0,0,0.05,9,0)" xlink:href="#ak"/>
                <use transform="matrix(0.05,0,0,0.05,14,0)" xlink:href="#ad"/>
                <use transform="matrix(0.05,0,0,0.05,19.95,0)" xlink:href="#ac"/>
                <use transform="matrix(0.05,0,0,0.05,29.950000000000003,0)" xlink:href="#ac"/>
                <use transform="matrix(0.05,0,0,0.05,39.95,0)" xlink:href="#ak"/>
                <use transform="matrix(0.05,0,0,0.05,44.95,0)" xlink:href="#ap"/>
                <use transform="matrix(0.05,0,0,0.05,54.95,0)" xlink:href="#ah"/>
                <use transform="matrix(0.05,0,0,0.05,64.95,0)" xlink:href="#an"/>
                <use transform="matrix(0.05,0,0,0.05,69.60000000000001,0)" xlink:href="#an"/>
                <use transform="matrix(0.05,0,0,0.05,74.60000000000001,0)" xlink:href="#ae"/>
                <use transform="matrix(0.05,0,0,0.05,78.55000000000001,0)" xlink:href="#aw"/>
            </g>
            <g id="y">
                <use transform="matrix(0.05,0,0,0.05,0,0)" xlink:href="#as"/>
                <use transform="matrix(0.05,0,0,0.05,10,0)" xlink:href="#am"/>
                <use transform="matrix(0.05,0,0,0.05,20,0)" xlink:href="#ab"/>
                <use transform="matrix(0.05,0,0,0.05,29,0)" xlink:href="#ak"/>
                <use transform="matrix(0.05,0,0,0.05,34,0)" xlink:href="#ap"/>
                <use transform="matrix(0.05,0,0,0.05,44,0)" xlink:href="#aj"/>
                <use transform="matrix(0.05,0,0,0.05,53,0)" xlink:href="#am"/>
                <use transform="matrix(0.05,0,0,0.05,63,0)" xlink:href="#af"/>
                <use transform="matrix(0.05,0,0,0.05,73,0)" xlink:href="#ac"/>
            </g>
            <g id="z">
                <use transform="matrix(0.05,0,0,0.05,0,0)" xlink:href="#aj"/>
                <use transform="matrix(0.05,0,0,0.05,9,0)" xlink:href="#ae"/>
                <use transform="matrix(0.05,0,0,0.05,12.949999999999998,0)" xlink:href="#ak"/>
                <use transform="matrix(0.05,0,0,0.05,17.95,0)" xlink:href="#ar"/>
            </g>
            <g id="A">
                <use transform="matrix(0.05,0,0,0.05,0,0)" xlink:href="#aj"/>
                <use transform="matrix(0.05,0,0,0.05,9,0)" xlink:href="#am"/>
                <use transform="matrix(0.05,0,0,0.05,19,0)" xlink:href="#aa"/>
                <use transform="matrix(0.05,0,0,0.05,29,0)" xlink:href="#ag"/>
                <use transform="matrix(0.05,0,0,0.05,39,0)" xlink:href="#ak"/>
                <use transform="matrix(0.05,0,0,0.05,44,0)" xlink:href="#ad"/>
                <use transform="matrix(0.05,0,0,0.05,49.95,0)" xlink:href="#ar"/>
            </g>
            <g id="B">
                <use transform="matrix(0.05,0,0,0.05,0,0)" xlink:href="#ac"/>
                <use transform="matrix(0.05,0,0,0.05,10,0)" xlink:href="#ai"/>
                <use transform="matrix(0.05,0,0,0.05,24.950000000000003,0)" xlink:href="#ah"/>
                <use transform="matrix(0.05,0,0,0.05,34.95,0)" xlink:href="#ae"/>
                <use transform="matrix(0.05,0,0,0.05,38.900000000000006,0)" xlink:href="#aq"/>
            </g>
            <path d="M106-169C34-169 62-67 57 0H25v-261h32l-1 103c12-21 28-36 61-36 89 0 53 116 60 194h-32v-121c2-32-8-49-39-48" id="ax"/>
            <g id="C">
                <use transform="matrix(0.05,0,0,0.05,0,0)" xlink:href="#as"/>
                <use transform="matrix(0.05,0,0,0.05,10,0)" xlink:href="#ax"/>
                <use transform="matrix(0.05,0,0,0.05,20,0)" xlink:href="#am"/>
                <use transform="matrix(0.05,0,0,0.05,30,0)" xlink:href="#ag"/>
                <use transform="matrix(0.05,0,0,0.05,40,0)" xlink:href="#ac"/>
            </g>
            <g id="D">
                <use transform="matrix(0.05,0,0,0.05,0,0)" xlink:href="#ai"/>
                <use transform="matrix(0.05,0,0,0.05,14.950000000000001,0)" xlink:href="#am"/>
                <use transform="matrix(0.05,0,0,0.05,24.950000000000003,0)" xlink:href="#au"/>
                <use transform="matrix(0.05,0,0,0.05,34.95,0)" xlink:href="#ae"/>
                <use transform="matrix(0.05,0,0,0.05,38.900000000000006,0)" xlink:href="#aq"/>
                <use transform="matrix(0.05,0,0,0.05,42.85000000000001,0)" xlink:href="#ac"/>
            </g>
            <g id="E">
                <use transform="matrix(0.05,0,0,0.05,0,0)" xlink:href="#aj"/>
                <use transform="matrix(0.05,0,0,0.05,9,0)" xlink:href="#ad"/>
                <use transform="matrix(0.05,0,0,0.05,14.949999999999998,0)" xlink:href="#ac"/>
                <use transform="matrix(0.05,0,0,0.05,24.95,0)" xlink:href="#ah"/>
                <use transform="matrix(0.05,0,0,0.05,34.95,0)" xlink:href="#ak"/>
                <use transform="matrix(0.05,0,0,0.05,39.95,0)" xlink:href="#ac"/>
                <use transform="matrix(0.05,0,0,0.05,49.95,0)" xlink:href="#af"/>
                <use transform="matrix(0.05,0,0,0.05,59.95,0)" xlink:href="#ap"/>
                <use transform="matrix(0.05,0,0,0.05,69.95,0)" xlink:href="#ah"/>
                <use transform="matrix(0.05,0,0,0.05,79.95,0)" xlink:href="#ak"/>
            </g>
            <g id="F">
                <use transform="matrix(0.05,0,0,0.05,0,0)" xlink:href="#aa"/>
                <use transform="matrix(0.05,0,0,0.05,10,0)" xlink:href="#as"/>
                <use transform="matrix(0.05,0,0,0.05,20,0)" xlink:href="#af"/>
                <use transform="matrix(0.05,0,0,0.05,30,0)" xlink:href="#ah"/>
                <use transform="matrix(0.05,0,0,0.05,40,0)" xlink:href="#ak"/>
                <use transform="matrix(0.05,0,0,0.05,45,0)" xlink:href="#ac"/>
                <use transform="matrix(0.05,0,0,0.05,55,0)" xlink:href="#af"/>
                <use transform="matrix(0.05,0,0,0.05,65,0)" xlink:href="#ap"/>
                <use transform="matrix(0.05,0,0,0.05,75,0)" xlink:href="#ah"/>
                <use transform="matrix(0.05,0,0,0.05,85,0)" xlink:href="#ak"/>
            </g>
            <path
                d="M177-190C167-65 218 103 67 71c-23-6-38-20-44-43l32-5c15 47 100 32 89-28v-30C133-14 115 1 83 1 29 1 15-40 15-95c0-56 16-97 71-98 29-1 48 16 59 35 1-10 0-23 2-32h30zM94-22c36 0 50-32 50-73 0-42-14-75-50-75-39 0-46 34-46 75s6 73 46 73"
                id="ay"/>
            <g id="G">
                <use transform="matrix(0.05,0,0,0.05,0,0)" xlink:href="#aa"/>
                <use transform="matrix(0.05,0,0,0.05,10,0)" xlink:href="#ab"/>
                <use transform="matrix(0.05,0,0,0.05,19,0)" xlink:href="#ac"/>
                <use transform="matrix(0.05,0,0,0.05,29,0)" xlink:href="#ad"/>
                <use transform="matrix(0.05,0,0,0.05,34.95,0)" xlink:href="#ap"/>
                <use transform="matrix(0.05,0,0,0.05,44.95,0)" xlink:href="#ab"/>
                <use transform="matrix(0.05,0,0,0.05,53.95,0)" xlink:href="#ac"/>
                <use transform="matrix(0.05,0,0,0.05,63.95,0)" xlink:href="#ak"/>
                <use transform="matrix(0.05,0,0,0.05,68.95,0)" xlink:href="#ak"/>
                <use transform="matrix(0.05,0,0,0.05,73.95,0)" xlink:href="#ae"/>
                <use transform="matrix(0.05,0,0,0.05,77.9,0)" xlink:href="#ag"/>
                <use transform="matrix(0.05,0,0,0.05,87.9,0)" xlink:href="#ay"/>
            </g>
            <g id="H">
                <use transform="matrix(0.05,0,0,0.05,0,0)" xlink:href="#ab"/>
                <use transform="matrix(0.05,0,0,0.05,9,0)" xlink:href="#ac"/>
                <use transform="matrix(0.05,0,0,0.05,19,0)" xlink:href="#ag"/>
                <use transform="matrix(0.05,0,0,0.05,29,0)" xlink:href="#af"/>
                <use transform="matrix(0.05,0,0,0.05,39,0)" xlink:href="#ap"/>
                <use transform="matrix(0.05,0,0,0.05,49,0)" xlink:href="#ah"/>
                <use transform="matrix(0.05,0,0,0.05,59,0)" xlink:href="#aj"/>
                <use transform="matrix(0.05,0,0,0.05,68,0)" xlink:href="#ak"/>
                <use transform="matrix(0.05,0,0,0.05,73,0)" xlink:href="#ae"/>
                <use transform="matrix(0.05,0,0,0.05,76.95,0)" xlink:href="#al"/>
                <use transform="matrix(0.05,0,0,0.05,85.95,0)" xlink:href="#ae"/>
                <use transform="matrix(0.05,0,0,0.05,89.9,0)" xlink:href="#ak"/>
                <use transform="matrix(0.05,0,0,0.05,94.9,0)" xlink:href="#ar"/>
                <use transform="matrix(0.05,0,0,0.05,103.9,0)" xlink:href="#ap"/>
                <use transform="matrix(0.05,0,0,0.05,113.9,0)" xlink:href="#aq"/>
                <use transform="matrix(0.05,0,0,0.05,117.85000000000001,0)" xlink:href="#am"/>
                <use transform="matrix(0.05,0,0,0.05,127.85000000000001,0)" xlink:href="#ay"/>
                <use transform="matrix(0.05,0,0,0.05,137.85000000000002,0)" xlink:href="#ab"/>
            </g>
            <g id="I">
                <use transform="matrix(0.05,0,0,0.05,0,0)" xlink:href="#ab"/>
                <use transform="matrix(0.05,0,0,0.05,9,0)" xlink:href="#ac"/>
                <use transform="matrix(0.05,0,0,0.05,19,0)" xlink:href="#ag"/>
                <use transform="matrix(0.05,0,0,0.05,29,0)" xlink:href="#af"/>
                <use transform="matrix(0.05,0,0,0.05,39,0)" xlink:href="#ap"/>
                <use transform="matrix(0.05,0,0,0.05,49,0)" xlink:href="#ai"/>
                <use transform="matrix(0.05,0,0,0.05,63.95,0)" xlink:href="#ac"/>
                <use transform="matrix(0.05,0,0,0.05,73.95,0)" xlink:href="#ab"/>
                <use transform="matrix(0.05,0,0,0.05,82.95,0)" xlink:href="#ab"/>
                <use transform="matrix(0.05,0,0,0.05,91.95,0)" xlink:href="#ah"/>
                <use transform="matrix(0.05,0,0,0.05,101.95,0)" xlink:href="#ay"/>
                <use transform="matrix(0.05,0,0,0.05,111.95,0)" xlink:href="#ac"/>
                <use transform="matrix(0.05,0,0,0.05,121.95,0)" xlink:href="#ap"/>
                <use transform="matrix(0.05,0,0,0.05,131.95,0)" xlink:href="#aq"/>
                <use transform="matrix(0.05,0,0,0.05,135.89999999999998,0)" xlink:href="#am"/>
                <use transform="matrix(0.05,0,0,0.05,145.89999999999998,0)" xlink:href="#ay"/>
                <use transform="matrix(0.05,0,0,0.05,155.89999999999998,0)" xlink:href="#ab"/>
            </g>
            <g id="J">
                <use transform="matrix(0.05,0,0,0.05,0,0)" xlink:href="#as"/>
                <use transform="matrix(0.05,0,0,0.05,10,0)" xlink:href="#ad"/>
                <use transform="matrix(0.05,0,0,0.05,15.949999999999998,0)" xlink:href="#ae"/>
                <use transform="matrix(0.05,0,0,0.05,19.9,0)" xlink:href="#al"/>
                <use transform="matrix(0.05,0,0,0.05,28.899999999999995,0)" xlink:href="#ah"/>
                <use transform="matrix(0.05,0,0,0.05,38.9,0)" xlink:href="#ak"/>
                <use transform="matrix(0.05,0,0,0.05,43.9,0)" xlink:href="#ac"/>
                <use transform="matrix(0.05,0,0,0.05,53.900000000000006,0)" xlink:href="#ap"/>
                <use transform="matrix(0.05,0,0,0.05,63.900000000000006,0)" xlink:href="#ai"/>
                <use transform="matrix(0.05,0,0,0.05,78.85,0)" xlink:href="#am"/>
                <use transform="matrix(0.05,0,0,0.05,88.85,0)" xlink:href="#af"/>
                <use transform="matrix(0.05,0,0,0.05,98.85,0)" xlink:href="#ac"/>
            </g>
            <g id="K">
                <use transform="matrix(0.05,0,0,0.05,0,0)" xlink:href="#ae"/>
                <use transform="matrix(0.05,0,0,0.05,3.95,0)" xlink:href="#ag"/>
                <use transform="matrix(0.05,0,0,0.05,13.949999999999998,0)" xlink:href="#aj"/>
                <use transform="matrix(0.05,0,0,0.05,22.95,0)" xlink:href="#am"/>
                <use transform="matrix(0.05,0,0,0.05,32.95,0)" xlink:href="#ay"/>
                <use transform="matrix(0.05,0,0,0.05,42.95,0)" xlink:href="#ag"/>
                <use transform="matrix(0.05,0,0,0.05,52.95,0)" xlink:href="#ae"/>
                <use transform="matrix(0.05,0,0,0.05,56.900000000000006,0)" xlink:href="#ak"/>
                <use transform="matrix(0.05,0,0,0.05,61.900000000000006,0)" xlink:href="#am"/>
                <use transform="matrix(0.05,0,0,0.05,71.9,0)" xlink:href="#ap"/>
                <use transform="matrix(0.05,0,0,0.05,81.9,0)" xlink:href="#ai"/>
                <use transform="matrix(0.05,0,0,0.05,96.85000000000001,0)" xlink:href="#am"/>
                <use transform="matrix(0.05,0,0,0.05,106.85000000000001,0)" xlink:href="#af"/>
                <use transform="matrix(0.05,0,0,0.05,116.85000000000001,0)" xlink:href="#ac"/>
            </g>
            <g id="L">
                <use transform="matrix(0.05,0,0,0.05,0,0)" xlink:href="#as"/>
                <use transform="matrix(0.05,0,0,0.05,10,0)" xlink:href="#aa"/>
                <use transform="matrix(0.05,0,0,0.05,20,0)" xlink:href="#ab"/>
                <use transform="matrix(0.05,0,0,0.05,29,0)" xlink:href="#ax"/>
                <use transform="matrix(0.05,0,0,0.05,39,0)" xlink:href="#ap"/>
                <use transform="matrix(0.05,0,0,0.05,49,0)" xlink:href="#ag"/>
                <use transform="matrix(0.05,0,0,0.05,59,0)" xlink:href="#am"/>
                <use transform="matrix(0.05,0,0,0.05,69,0)" xlink:href="#ak"/>
                <use transform="matrix(0.05,0,0,0.05,74,0)" xlink:href="#ae"/>
                <use transform="matrix(0.05,0,0,0.05,77.95,0)" xlink:href="#an"/>
                <use transform="matrix(0.05,0,0,0.05,82.95,0)" xlink:href="#ae"/>
                <use transform="matrix(0.05,0,0,0.05,86.9,0)" xlink:href="#aj"/>
                <use transform="matrix(0.05,0,0,0.05,95.9,0)" xlink:href="#ah"/>
                <use transform="matrix(0.05,0,0,0.05,105.9,0)" xlink:href="#ak"/>
                <use transform="matrix(0.05,0,0,0.05,110.9,0)" xlink:href="#ae"/>
                <use transform="matrix(0.05,0,0,0.05,114.85000000000001,0)" xlink:href="#am"/>
                <use transform="matrix(0.05,0,0,0.05,124.85000000000001,0)" xlink:href="#ag"/>
                <use transform="matrix(0.05,0,0,0.05,134.85000000000002,0)" xlink:href="#ab"/>
            </g>
            <path d="M205 0l-28-72H64L36 0H1l101-248h38L239 0h-34zm-38-99l-47-123c-12 45-31 82-46 123h93" id="az"/>
            <g id="M">
                <use transform="matrix(0.1111111111111111,0,0,0.1111111111111111,0,0)" xlink:href="#az"/>
                <use transform="matrix(0.1111111111111111,0,0,0.1111111111111111,26.666666666666664,0)" xlink:href="#aa"/>
                <use transform="matrix(0.1111111111111111,0,0,0.1111111111111111,48.888888888888886,0)" xlink:href="#ak"/>
                <use transform="matrix(0.1111111111111111,0,0,0.1111111111111111,60,0)" xlink:href="#ax"/>
            </g>
            <path d="M190 0L58-211 59 0H30v-248h39L202-35l-2-213h31V0h-41" id="aA"/>
            <g id="N">
                <use transform="matrix(0.1111111111111111,0,0,0.1111111111111111,0,0)" xlink:href="#aA"/>
                <use transform="matrix(0.1111111111111111,0,0,0.1111111111111111,28.777777777777775,0)" xlink:href="#ah"/>
                <use transform="matrix(0.1111111111111111,0,0,0.1111111111111111,51,0)" xlink:href="#ai"/>
                <use transform="matrix(0.1111111111111111,0,0,0.1111111111111111,84.22222222222223,0)" xlink:href="#ac"/>
                <use transform="matrix(0.1111111111111111,0,0,0.1111111111111111,106.44444444444446,0)" xlink:href="#ab"/>
                <use transform="matrix(0.1111111111111111,0,0,0.1111111111111111,126.44444444444446,0)" xlink:href="#as"/>
                <use transform="matrix(0.1111111111111111,0,0,0.1111111111111111,148.66666666666669,0)" xlink:href="#ah"/>
                <use transform="matrix(0.1111111111111111,0,0,0.1111111111111111,170.8888888888889,0)" xlink:href="#aj"/>
                <use transform="matrix(0.1111111111111111,0,0,0.1111111111111111,190.8888888888889,0)" xlink:href="#ac"/>
            </g>
            <g id="O">
                <use transform="matrix(0.05,0,0,0.05,0,0)" xlink:href="#aa"/>
                <use transform="matrix(0.05,0,0,0.05,10,0)" xlink:href="#ab"/>
                <use transform="matrix(0.05,0,0,0.05,19,0)" xlink:href="#ac"/>
                <use transform="matrix(0.05,0,0,0.05,29,0)" xlink:href="#ad"/>
                <use transform="matrix(0.05,0,0,0.05,34.95,0)" xlink:href="#ab"/>
                <use transform="matrix(0.05,0,0,0.05,43.95,0)" xlink:href="#ap"/>
                <use transform="matrix(0.05,0,0,0.05,53.95,0)" xlink:href="#ab"/>
                <use transform="matrix(0.05,0,0,0.05,62.95,0)" xlink:href="#av"/>
                <use transform="matrix(0.05,0,0,0.05,71.95,0)" xlink:href="#ae"/>
                <use transform="matrix(0.05,0,0,0.05,75.9,0)" xlink:href="#aq"/>
                <use transform="matrix(0.05,0,0,0.05,79.85000000000001,0)" xlink:href="#aq"/>
                <use transform="matrix(0.05,0,0,0.05,83.80000000000001,0)" xlink:href="#ab"/>
            </g>
            <g id="P">
                <use transform="matrix(0.05,0,0,0.05,0,0)" xlink:href="#ab"/>
                <use transform="matrix(0.05,0,0,0.05,9,0)" xlink:href="#av"/>
                <use transform="matrix(0.05,0,0,0.05,18,0)" xlink:href="#ae"/>
                <use transform="matrix(0.05,0,0,0.05,21.95,0)" xlink:href="#aq"/>
                <use transform="matrix(0.05,0,0,0.05,25.899999999999995,0)" xlink:href="#aq"/>
                <use transform="matrix(0.05,0,0,0.05,29.849999999999994,0)" xlink:href="#ap"/>
                <use transform="matrix(0.05,0,0,0.05,39.849999999999994,0)" xlink:href="#ae"/>
                <use transform="matrix(0.05,0,0,0.05,43.8,0)" xlink:href="#af"/>
            </g>
            <g id="Q">
                <use transform="matrix(0.05,0,0,0.05,0,0)" xlink:href="#aa"/>
                <use transform="matrix(0.05,0,0,0.05,10,0)" xlink:href="#ab"/>
                <use transform="matrix(0.05,0,0,0.05,19,0)" xlink:href="#ac"/>
                <use transform="matrix(0.05,0,0,0.05,29,0)" xlink:href="#ad"/>
                <use transform="matrix(0.05,0,0,0.05,34.95,0)" xlink:href="#ab"/>
                <use transform="matrix(0.05,0,0,0.05,43.95,0)" xlink:href="#ap"/>
                <use transform="matrix(0.05,0,0,0.05,53.95,0)" xlink:href="#af"/>
                <use transform="matrix(0.05,0,0,0.05,63.95,0)" xlink:href="#ac"/>
                <use transform="matrix(0.05,0,0,0.05,73.95,0)" xlink:href="#ay"/>
                <use transform="matrix(0.05,0,0,0.05,83.95,0)" xlink:href="#ad"/>
                <use transform="matrix(0.05,0,0,0.05,89.9,0)" xlink:href="#ac"/>
                <use transform="matrix(0.05,0,0,0.05,99.9,0)" xlink:href="#ac"/>
                <use transform="matrix(0.05,0,0,0.05,109.9,0)" xlink:href="#ab"/>
            </g>
            <g id="R">
                <use transform="matrix(0.05,0,0,0.05,0,0)" xlink:href="#af"/>
                <use transform="matrix(0.05,0,0,0.05,10,0)" xlink:href="#ac"/>
                <use transform="matrix(0.05,0,0,0.05,20,0)" xlink:href="#ay"/>
                <use transform="matrix(0.05,0,0,0.05,30,0)" xlink:href="#ad"/>
                <use transform="matrix(0.05,0,0,0.05,35.95,0)" xlink:href="#ac"/>
                <use transform="matrix(0.05,0,0,0.05,45.95,0)" xlink:href="#ac"/>
                <use transform="matrix(0.05,0,0,0.05,55.95,0)" xlink:href="#ap"/>
                <use transform="matrix(0.05,0,0,0.05,65.95,0)" xlink:href="#ae"/>
                <use transform="matrix(0.05,0,0,0.05,69.9,0)" xlink:href="#af"/>
            </g>
            <g id="S">
                <use transform="matrix(0.05,0,0,0.05,0,0)" xlink:href="#aa"/>
                <use transform="matrix(0.05,0,0,0.05,10,0)" xlink:href="#ab"/>
                <use transform="matrix(0.05,0,0,0.05,19,0)" xlink:href="#ac"/>
                <use transform="matrix(0.05,0,0,0.05,29,0)" xlink:href="#ad"/>
                <use transform="matrix(0.05,0,0,0.05,34.95,0)" xlink:href="#ab"/>
                <use transform="matrix(0.05,0,0,0.05,43.95,0)" xlink:href="#ap"/>
                <use transform="matrix(0.05,0,0,0.05,53.95,0)" xlink:href="#ad"/>
                <use transform="matrix(0.05,0,0,0.05,59.900000000000006,0)" xlink:href="#ac"/>
                <use transform="matrix(0.05,0,0,0.05,69.9,0)" xlink:href="#an"/>
                <use transform="matrix(0.05,0,0,0.05,74.9,0)" xlink:href="#ac"/>
                <use transform="matrix(0.05,0,0,0.05,84.9,0)" xlink:href="#ad"/>
                <use transform="matrix(0.05,0,0,0.05,90.85000000000001,0)" xlink:href="#ac"/>
                <use transform="matrix(0.05,0,0,0.05,100.85000000000001,0)" xlink:href="#ag"/>
                <use transform="matrix(0.05,0,0,0.05,110.85000000000001,0)" xlink:href="#aj"/>
                <use transform="matrix(0.05,0,0,0.05,119.85000000000001,0)" xlink:href="#ac"/>
                <use transform="matrix(0.05,0,0,0.05,129.85000000000002,0)" xlink:href="#ab"/>
            </g>
            <g id="T">
                <use transform="matrix(0.05,0,0,0.05,0,0)" xlink:href="#ad"/>
                <use transform="matrix(0.05,0,0,0.05,5.95,0)" xlink:href="#ac"/>
                <use transform="matrix(0.05,0,0,0.05,15.949999999999998,0)" xlink:href="#an"/>
                <use transform="matrix(0.05,0,0,0.05,20.95,0)" xlink:href="#ac"/>
                <use transform="matrix(0.05,0,0,0.05,30.950000000000003,0)" xlink:href="#ad"/>
                <use transform="matrix(0.05,0,0,0.05,36.9,0)" xlink:href="#ac"/>
                <use transform="matrix(0.05,0,0,0.05,46.9,0)" xlink:href="#ag"/>
                <use transform="matrix(0.05,0,0,0.05,56.900000000000006,0)" xlink:href="#aj"/>
                <use transform="matrix(0.05,0,0,0.05,65.9,0)" xlink:href="#ac"/>
                <use transform="matrix(0.05,0,0,0.05,75.9,0)" xlink:href="#ap"/>
                <use transform="matrix(0.05,0,0,0.05,85.9,0)" xlink:href="#ae"/>
                <use transform="matrix(0.05,0,0,0.05,89.85000000000001,0)" xlink:href="#af"/>
            </g>
            <g id="U">
                <use transform="matrix(0.05,0,0,0.05,0,0)" xlink:href="#aa"/>
                <use transform="matrix(0.05,0,0,0.05,10,0)" xlink:href="#ab"/>
                <use transform="matrix(0.05,0,0,0.05,19,0)" xlink:href="#ac"/>
                <use transform="matrix(0.05,0,0,0.05,29,0)" xlink:href="#ad"/>
                <use transform="matrix(0.05,0,0,0.05,34.95,0)" xlink:href="#ab"/>
                <use transform="matrix(0.05,0,0,0.05,43.95,0)" xlink:href="#ap"/>
                <use transform="matrix(0.05,0,0,0.05,53.95,0)" xlink:href="#ad"/>
                <use transform="matrix(0.05,0,0,0.05,59.900000000000006,0)" xlink:href="#am"/>
                <use transform="matrix(0.05,0,0,0.05,69.9,0)" xlink:href="#aq"/>
                <use transform="matrix(0.05,0,0,0.05,73.85000000000001,0)" xlink:href="#ac"/>
                <use transform="matrix(0.05,0,0,0.05,83.85000000000001,0)" xlink:href="#ab"/>
            </g>
            <g id="V">
                <use transform="matrix(0.05,0,0,0.05,0,0)" xlink:href="#ad"/>
                <use transform="matrix(0.05,0,0,0.05,5.95,0)" xlink:href="#am"/>
                <use transform="matrix(0.05,0,0,0.05,15.949999999999998,0)" xlink:href="#aq"/>
                <use transform="matrix(0.05,0,0,0.05,19.9,0)" xlink:href="#ac"/>
                <use transform="matrix(0.05,0,0,0.05,29.899999999999995,0)" xlink:href="#ap"/>
                <use transform="matrix(0.05,0,0,0.05,39.9,0)" xlink:href="#ae"/>
                <use transform="matrix(0.05,0,0,0.05,43.85,0)" xlink:href="#af"/>
            </g>
            <g id="W">
                <use transform="matrix(0.05,0,0,0.05,0,0)" xlink:href="#ad"/>
                <use transform="matrix(0.05,0,0,0.05,5.95,0)" xlink:href="#am"/>
                <use transform="matrix(0.05,0,0,0.05,15.949999999999998,0)" xlink:href="#aq"/>
                <use transform="matrix(0.05,0,0,0.05,19.9,0)" xlink:href="#ac"/>
                <use transform="matrix(0.05,0,0,0.05,29.899999999999995,0)" xlink:href="#ab"/>
            </g>
            <g id="X">
                <use transform="matrix(0.05,0,0,0.05,0,0)" xlink:href="#aa"/>
                <use transform="matrix(0.05,0,0,0.05,10,0)" xlink:href="#aa"/>
                <use transform="matrix(0.05,0,0,0.05,20,0)" xlink:href="#ae"/>
                <use transform="matrix(0.05,0,0,0.05,23.95,0)" xlink:href="#af"/>
            </g>
            <g id="Y">
                <use transform="matrix(0.05,0,0,0.05,0,0)" xlink:href="#ad"/>
                <use transform="matrix(0.05,0,0,0.05,5.95,0)" xlink:href="#am"/>
                <use transform="matrix(0.05,0,0,0.05,15.949999999999998,0)" xlink:href="#aq"/>
                <use transform="matrix(0.05,0,0,0.05,19.9,0)" xlink:href="#ac"/>
                <use transform="matrix(0.05,0,0,0.05,29.899999999999995,0)" xlink:href="#ap"/>
                <use transform="matrix(0.05,0,0,0.05,39.9,0)" xlink:href="#ag"/>
                <use transform="matrix(0.05,0,0,0.05,49.9,0)" xlink:href="#ah"/>
                <use transform="matrix(0.05,0,0,0.05,59.900000000000006,0)" xlink:href="#ai"/>
                <use transform="matrix(0.05,0,0,0.05,74.85,0)" xlink:href="#ac"/>
            </g>
            <g id="Z">
                <use transform="matrix(0.05,0,0,0.05,0,0)" xlink:href="#ay"/>
                <use transform="matrix(0.05,0,0,0.05,10,0)" xlink:href="#aa"/>
                <use transform="matrix(0.05,0,0,0.05,20,0)" xlink:href="#ah"/>
                <use transform="matrix(0.05,0,0,0.05,30,0)" xlink:href="#ad"/>
                <use transform="matrix(0.05,0,0,0.05,35.95,0)" xlink:href="#af"/>
                <use transform="matrix(0.05,0,0,0.05,45.95,0)" xlink:href="#ap"/>
                <use transform="matrix(0.05,0,0,0.05,55.95,0)" xlink:href="#ag"/>
                <use transform="matrix(0.05,0,0,0.05,65.95,0)" xlink:href="#ah"/>
                <use transform="matrix(0.05,0,0,0.05,75.95,0)" xlink:href="#ai"/>
                <use transform="matrix(0.05,0,0,0.05,90.9,0)" xlink:href="#ac"/>
            </g>
        </defs>
    </g>
</svg>
